<svg xmlns="http://www.w3.org/2000/svg" data-name="Layer 2" viewBox="0 0 100 125" x="0px" y="0px"><path d="M50,6A43.978,43.978,0,0,0,16.479,78.476l-.014.023.764.852A43.961,43.961,0,0,0,56.945,93.442c.945-.152,1.88-.345,2.811-.557q1.638-.375,3.241-.873.718-.222,1.428-.471a44.231,44.231,0,0,0,18.346-12.19l.764-.852-.014-.023A43.978,43.978,0,0,0,50,6ZM47.861,90.939c-.235-.013-.468-.038-.7-.055-.475-.033-.95-.064-1.422-.114-.279-.029-.556-.072-.834-.107-.424-.054-.849-.1-1.27-.17-.3-.047-.59-.107-.885-.16-.4-.072-.8-.141-1.2-.225-.3-.064-.6-.141-.9-.211-.383-.091-.768-.178-1.149-.279-.306-.081-.609-.175-.913-.263-.371-.108-.743-.213-1.11-.332-.3-.1-.606-.207-.908-.312-.36-.125-.722-.249-1.079-.384-.3-.115-.6-.239-.9-.361-.351-.143-.7-.284-1.049-.436-.3-.131-.59-.27-.884-.407-.341-.16-.684-.32-1.021-.489-.292-.146-.579-.3-.868-.454-.331-.176-.662-.353-.989-.538-.286-.162-.567-.332-.849-.5-.321-.192-.641-.385-.957-.586-.279-.178-.554-.362-.829-.547-.309-.207-.618-.417-.922-.634-.271-.193-.538-.391-.8-.591-.3-.223-.594-.449-.886-.681-.262-.207-.521-.42-.779-.635q-.429-.357-.85-.726-.38-.335-.751-.679-.41-.378-.808-.769-.366-.357-.724-.724c-.122-.126-.24-.255-.36-.381a36.126,36.126,0,0,1,59.486,0c-.123.13-.244.262-.369.39q-.349.36-.708.709-.405.4-.821.782c-.245.226-.491.449-.741.669q-.425.374-.859.735c-.255.212-.511.422-.771.628-.294.233-.593.461-.893.686-.265.2-.53.395-.8.587-.306.217-.616.428-.927.637-.274.184-.548.367-.825.544-.316.2-.637.395-.959.588-.281.169-.563.338-.848.5-.327.185-.659.362-.991.539-.287.153-.574.307-.866.453-.337.169-.68.329-1.022.489-.294.137-.587.276-.883.407-.348.152-.7.294-1.051.437-.3.121-.6.245-.9.36-.356.135-.718.259-1.079.384-.3.105-.6.214-.909.313-.367.118-.738.223-1.109.331-.3.088-.607.182-.913.263-.38.1-.763.188-1.146.278-.3.071-.6.148-.908.212-.4.084-.8.152-1.194.224-.295.054-.59.114-.887.161-.421.067-.846.116-1.27.17-.278.035-.555.078-.834.107-.472.05-.947.081-1.422.114-.234.017-.467.042-.7.055Q51.072,90.995,50,91T47.861,90.939ZM81.782,75.893a39.1,39.1,0,0,0-63.564,0,41,41,0,1,1,63.564,0Z"/><path d="M50,23.894A14.717,14.717,0,1,0,64.716,38.611,14.734,14.734,0,0,0,50,23.894Zm0,26.434A11.717,11.717,0,1,1,61.716,38.611,11.731,11.731,0,0,1,50,50.328Z"/><text x="0" y="115" fill="#000000" font-size="5px" font-weight="bold" font-family="'Helvetica Neue', Helvetica, Arial-Unicode, Arial, Sans-serif">Created by Wahid Ilham M. Rifai</text><text x="0" y="120" fill="#000000" font-size="5px" font-weight="bold" font-family="'Helvetica Neue', Helvetica, Arial-Unicode, Arial, Sans-serif">from the Noun Project</text></svg>