<svg xmlns="http://www.w3.org/2000/svg" data-name="Layer 1" viewBox="0 0 100 125" x="0px" y="0px"><path d="M78.166,63.81,62.7,71.122l-.027-.046a5.377,5.377,0,0,0-3.321-2.492l-12.88-3.229a3.488,3.488,0,0,1-1.338-.642c-7-5.314-14.588-4.385-22.557,2.751l-.256-.433a2.921,2.921,0,0,0-1.786-1.363,2.818,2.818,0,0,0-2.226.3l-6.9,4.118a2.938,2.938,0,0,0-.986,4.016L21.906,93.532A2.926,2.926,0,0,0,23.693,94.9a2.992,2.992,0,0,0,.771.1,2.806,2.806,0,0,0,1.455-.409l6.9-4.118a2.938,2.938,0,0,0,.986-4.016l-.1-.163.124-.078c1.425-.9,2.771-1.754,4.242-1.542L58,87.529a5.058,5.058,0,0,0,.716.051,7.336,7.336,0,0,0,3.717-1.245L84.647,73.312a4.962,4.962,0,0,0,2.318-3.2,6.381,6.381,0,0,0-.9-4.857C84.515,62.89,81.34,62.31,78.166,63.81ZM31.712,88.626l-6.9,4.118a.668.668,0,0,1-.564.074.77.77,0,0,1-.494-.38L12.275,73.012a.784.784,0,0,1,.237-1.075h0l6.9-4.118a.673.673,0,0,1,.352-.1.82.82,0,0,1,.212.03.771.771,0,0,1,.494.381L31.949,87.552A.782.782,0,0,1,31.712,88.626ZM84.871,69.621a2.816,2.816,0,0,1-1.312,1.835L61.342,84.478a4.573,4.573,0,0,1-3.04.921L38.375,82.545c-2.255-.322-4.084.833-5.7,1.853l-.069.043L23.691,69.354c7.309-6.7,13.9-7.659,20.14-2.927a5.672,5.672,0,0,0,2.115,1.015l12.88,3.229a3.239,3.239,0,0,1,2,1.508,3.394,3.394,0,0,1,.384,2.557A3.307,3.307,0,0,1,57.2,77.115L50.822,75.49a1.076,1.076,0,1,0-.531,2.085L56.669,79.2A5.438,5.438,0,0,0,63.4,73.167l15.681-7.412c1.668-.788,4.025-1.083,5.181.679A4.194,4.194,0,0,1,84.871,69.621ZM19.8,72.16a2.916,2.916,0,1,0,1.769,1.358A2.9,2.9,0,0,0,19.8,72.16Zm-.017,3.012a.763.763,0,1,1-.738-.96.743.743,0,0,1,.2.026.756.756,0,0,1,.463.355h0A.761.761,0,0,1,19.785,75.172ZM46.9,41.187c.686,1.043,1.531,2.158,2.426,3.339a41.3,41.3,0,0,1,4.146,6.188H52.182a1.076,1.076,0,0,0-1.076,1.076v2.459a3.539,3.539,0,0,0,3.535,3.535h.021v1.384a3.366,3.366,0,0,0,2.566,3.509,4.61,4.61,0,0,0,8.789,0A3.361,3.361,0,0,0,68.6,59.168V57.784h.021a3.539,3.539,0,0,0,3.535-3.535V51.79a1.076,1.076,0,0,0-1.076-1.076H69.788a41.305,41.305,0,0,1,4.147-6.188c.894-1.181,1.74-2.3,2.425-3.339a17.612,17.612,0,1,0-29.459,0ZM61.622,63.744a2.467,2.467,0,0,1-2.01-1.041h4.021A2.457,2.457,0,0,1,61.622,63.744Zm4.826-4.576c0,.831-.453,1.383-.752,1.383H57.565c-.3,0-.752-.552-.752-1.383V57.784h9.635ZM70,54.249a1.386,1.386,0,0,1-1.384,1.384H54.641a1.385,1.385,0,0,1-1.383-1.384V52.866H70ZM61.631,16.07A15.461,15.461,0,0,1,74.562,40.005c-.646.983-1.47,2.07-2.342,3.221a36.133,36.133,0,0,0-4.785,7.488H55.826a36.091,36.091,0,0,0-4.785-7.488c-.872-1.151-1.7-2.238-2.342-3.221A15.462,15.462,0,0,1,61.631,16.07Zm-1.076-5.021V6.076a1.076,1.076,0,1,1,2.151,0v4.973a1.076,1.076,0,0,1-2.151,0ZM41.576,14.828A1.076,1.076,0,1,1,43.1,13.307l3.516,3.516a1.076,1.076,0,1,1-1.521,1.522ZM33.269,33.362a1.075,1.075,0,0,1,1.075-1.076h4.973a1.076,1.076,0,0,1,0,2.152H34.344A1.075,1.075,0,0,1,33.269,33.362ZM76.648,18.345a1.077,1.077,0,0,1,0-1.522l3.516-3.516a1.076,1.076,0,1,1,1.522,1.521l-3.517,3.517a1.076,1.076,0,0,1-1.521,0ZM89.992,33.362a1.075,1.075,0,0,1-1.075,1.076H83.944a1.076,1.076,0,0,1,0-2.152h4.973A1.075,1.075,0,0,1,89.992,33.362ZM57.1,37.818a2.967,2.967,0,0,0,4.19,0l9.467-9.466a2.971,2.971,0,0,0,0-4.191h0a2.968,2.968,0,0,0-4.191,0L59.2,31.532l-2.5-2.5a2.963,2.963,0,0,0-4.19,4.191Zm-3.076-7.267a.819.819,0,0,1,1.148,0l3.262,3.263a1.077,1.077,0,0,0,1.522,0l8.131-8.132a.81.81,0,0,1,1.384.574.8.8,0,0,1-.236.574L59.77,36.3a.819.819,0,0,1-1.148,0l-4.6-4.6a.816.816,0,0,1,0-1.148Z"/><text x="0" y="115" fill="#000000" font-size="5px" font-weight="bold" font-family="'Helvetica Neue', Helvetica, Arial-Unicode, Arial, Sans-serif">Created by adiba</text><text x="0" y="120" fill="#000000" font-size="5px" font-weight="bold" font-family="'Helvetica Neue', Helvetica, Arial-Unicode, Arial, Sans-serif">from the Noun Project</text></svg>